<svg xmlns="http://www.w3.org/2000/svg" viewBox="0 0 254.28 117.53"><defs><style>.cls-1{fill:#fff;}</style></defs><g id="Layer_2" data-name="Layer 2"><g id="Layer_1-2" data-name="Layer 1"><path class="cls-1" d="M.13,117.52c4.93,0,9.87,0,14.8,0,4.52,0,9.05,0,13.57,0a.68.68,0,0,0,.7-.41q1.68-3,3.39-5.92,3.77-6.51,7.53-13,3.48-6,7-12.08l6.14-10.64,5.34-9.26,5.09-8.83a.57.57,0,0,0,0-.67c-2.06-3.53-4.1-7.06-6.15-10.59q-3.49-6-7-12.06l-1.1-1.87-1.33,2.31q-3.59,6.25-7.18,12.5-3.13,5.44-6.28,10.87-3.53,6.06-7,12.12-2.82,4.84-5.62,9.69L15,91.54,7.72,104.1c-2.1,3.62-4.19,7.24-6.3,10.85A27.93,27.93,0,0,1,0,117.52s.13,0,.13,0"/><path class="cls-1" d="M75.05,92.25c-7.74,0-15.48,0-23.22,0a.59.59,0,0,0-.58.33c-1.79,3.11-3.6,6.21-5.39,9.32q-4.19,7.22-8.35,14.43l-.62,1.09a1.44,1.44,0,0,0,.6.06h98c.3,0,.45,0,.25-.37q-1.65-2.81-3.28-5.63l-5.79-10c-1.7-2.93-3.4-5.85-5.08-8.79a.67.67,0,0,0-.68-.39q-11.43,0-22.87,0C90.38,92.27,82.72,92.3,75.05,92.25Z"/><path class="cls-1" d="M100.88,56.59H71.57L70,53.94q-4.41-7.62-8.81-15.26Q57.39,32,53.54,25.37a.53.53,0,0,1,0-.6Q59.32,14.89,65.08,5,66.46,2.62,67.83.24c.15-.25.22-.37.43,0q5,8.59,9.93,17.17l9.49,16.37,8.69,15Q98.62,52.7,100.88,56.59Z"/><path class="cls-1" d="M80.18,87H74.53L68,71,63.29,82.54h5V87H55.93l9.63-22.69h5Z"/><path class="cls-1" d="M75.81,64.32h6l5.63,15.2L93,64.32h5.83L89.73,87.07h-4.8Z"/><path class="cls-1" d="M101.67,64.35h17.4v4.58h-17.4Zm4.89,18h12.51v4.58h-17.4V73.35h10.87v4.58h-6Z"/><path class="cls-1" d="M141.82,86.91h-6.23l-8-11.7h4.44c2.24,0,3.41-1,3.53-3.08S134.38,69,132,69h-4.64v18h-5.43V64.32h10.5a9.21,9.21,0,0,1,6.78,2.37,7,7,0,0,1,1.92,5.11q0,5.53-4.77,7Z"/><path class="cls-1" d="M150.81,78l-8.67-13.67h6.26L153.56,73l5.25-8.67h6.11L156.25,77.9v9h-5.44Z"/><path class="cls-1" d="M176.59,86.91a11.1,11.1,0,0,1-11.36-11.26,11.21,11.21,0,0,1,11.55-11.33,12.38,12.38,0,0,1,5.22,1,11.27,11.27,0,0,1,3.54,2.45l-3.25,3.78a7.44,7.44,0,0,0-5.54-2.62,5.53,5.53,0,0,0-4.32,1.95,6.79,6.79,0,0,0-1.73,4.73,7,7,0,0,0,1.73,4.8,5.44,5.44,0,0,0,4.32,2,6.87,6.87,0,0,0,5.67-2.72l3.29,3.33a12.32,12.32,0,0,1-3.78,2.92A12,12,0,0,1,176.59,86.91Z"/><path class="cls-1" d="M198.59,86.94a12.35,12.35,0,0,1-4.77-.89,12.11,12.11,0,0,1-3.75-2.47,10.95,10.95,0,0,1-3.26-7.9v-.07a11,11,0,0,1,.86-4.37,11.6,11.6,0,0,1,2.44-3.59,11.36,11.36,0,0,1,3.78-2.49,13,13,0,0,1,9.56,0,11.47,11.47,0,0,1,3.72,2.45,11,11,0,0,1,3.28,7.94v.06a11.16,11.16,0,0,1-.86,4.36,11.84,11.84,0,0,1-2.47,3.61,11.25,11.25,0,0,1-3.73,2.47A12.36,12.36,0,0,1,198.59,86.94Zm.06-4.61a6.43,6.43,0,0,0,2.5-.47,5.63,5.63,0,0,0,2-1.42,5.88,5.88,0,0,0,1.31-2.14,7,7,0,0,0,.49-2.62v-.07a7,7,0,0,0-.49-2.65,6.21,6.21,0,0,0-1.34-2.14,6.32,6.32,0,0,0-2-1.44,6,6,0,0,0-2.48-.52,6.11,6.11,0,0,0-2.5.52,5.26,5.26,0,0,0-2,1.41,6.52,6.52,0,0,0-1.35,2.11,7.14,7.14,0,0,0-.48,2.65v.06a7.42,7.42,0,0,0,.48,2.66,6.77,6.77,0,0,0,1.35,2.14,5.8,5.8,0,0,0,2,1.42A6.14,6.14,0,0,0,198.65,82.33Z"/><path class="cls-1" d="M233.2,86.91H227l-8-11.7h4.43q3.36,0,3.53-3.08c0-2.08-1.2-3.14-3.62-3.17H218.7v18h-5.44V64.32h10.5q4.41,0,6.78,2.37a7,7,0,0,1,1.92,5.11c0,3.69-1.58,6-4.76,7Z"/><path class="cls-1" d="M241.45,86.94H236V64.32h9.41q8.31,0,8.86,7.84a7.05,7.05,0,0,1-2.72,6,10.93,10.93,0,0,1-6.78,2l-3-4.57h3.36q3.45,0,3.67-3.33,0-3.27-3.78-3.36h-3.55Z"/></g></g></svg>