<svg xmlns="http://www.w3.org/2000/svg" viewBox="0 0 135.84 117.53"><defs><style>.cls-1{fill:#fff;}</style></defs><g id="Layer_2" data-name="Layer 2"><g id="Layer_1-2" data-name="Layer 1"><path class="cls-1" d="M.13,117.52c4.93,0,9.87,0,14.8,0,4.52,0,9.05,0,13.57,0a.69.69,0,0,0,.7-.41q1.68-3,3.39-5.92,3.77-6.51,7.53-13,3.48-6,7-12.08,3.07-5.33,6.14-10.64l5.34-9.26,5.09-8.83a.57.57,0,0,0,0-.67c-2.06-3.53-4.1-7.06-6.15-10.59q-3.49-6-7-12.06c-.35-.61-.71-1.21-1.1-1.87l-1.33,2.31q-3.59,6.25-7.18,12.5-3.13,5.44-6.28,10.86l-7,12.13q-2.82,4.84-5.62,9.69L15,91.54,7.72,104.1c-2.1,3.62-4.19,7.24-6.3,10.85A27.93,27.93,0,0,1,0,117.52s.13,0,.13,0"/><path class="cls-1" d="M111.32,74.6q-3.79-6.52-7.57-13.06L96.37,48.8l-8.69-15L78.19,17.4q-5-8.59-9.93-17.18c-.2-.35-.28-.24-.43,0C66.92,1.82,66,3.39,65.08,5L53.54,24.77a.5.5,0,0,0,0,.59l7.68,13.31Q65.63,46.3,70,53.94L80,71.11q4.05,7,8.11,14.07a.65.65,0,0,0,.66.36H99.35v.06h17.82c.21,0,.57.12.3-.34C115.41,81.7,113.37,78.15,111.32,74.6Z"/><path class="cls-1" d="M75.05,92.25c-7.74,0-15.48,0-23.22,0a.57.57,0,0,0-.58.33c-1.79,3.11-3.6,6.21-5.39,9.32q-4.19,7.22-8.35,14.43l-.62,1.09a1.42,1.42,0,0,0,.6,0l92.57,0h5.44c.3,0,.45,0,.25-.37q-1.65-2.81-3.28-5.63l-5.79-10c-1.7-2.93-3.4-5.85-5.08-8.79a.67.67,0,0,0-.68-.39H98.05C90.38,92.27,82.72,92.3,75.05,92.25Z"/><path class="cls-1" d="M80.46,87H74.81L68.28,71,63.57,82.54h5V87H56.21l9.63-22.69h5Z"/></g></g></svg>